<?xml version="1.0" encoding="utf-8"?>
<svg xmlns="http://www.w3.org/2000/svg" xmlns:xlink="http://www.w3.org/1999/xlink" style="margin: auto; background: none; display: block; shape-rendering: auto;" width="800px" height="800px" viewBox="0 0 100 100" preserveAspectRatio="xMidYMid">
<g transform="rotate(0 50 50)">
  <rect x="47" y="24" rx="3" ry="6" width="6" height="12" fill="#dbcfd1">
    <animate attributeName="opacity" values="1;0" keyTimes="0;1" dur="4.545454545454546s" begin="-4.166666666666666s" repeatCount="indefinite"></animate>
  </rect>
</g><g transform="rotate(30 50 50)">
  <rect x="47" y="24" rx="3" ry="6" width="6" height="12" fill="#dbcfd1">
    <animate attributeName="opacity" values="1;0" keyTimes="0;1" dur="4.545454545454546s" begin="-3.7878787878787876s" repeatCount="indefinite"></animate>
  </rect>
</g><g transform="rotate(60 50 50)">
  <rect x="47" y="24" rx="3" ry="6" width="6" height="12" fill="#dbcfd1">
    <animate attributeName="opacity" values="1;0" keyTimes="0;1" dur="4.545454545454546s" begin="-3.4090909090909087s" repeatCount="indefinite"></animate>
  </rect>
</g><g transform="rotate(90 50 50)">
  <rect x="47" y="24" rx="3" ry="6" width="6" height="12" fill="#dbcfd1">
    <animate attributeName="opacity" values="1;0" keyTimes="0;1" dur="4.545454545454546s" begin="-3.0303030303030303s" repeatCount="indefinite"></animate>
  </rect>
</g><g transform="rotate(120 50 50)">
  <rect x="47" y="24" rx="3" ry="6" width="6" height="12" fill="#dbcfd1">
    <animate attributeName="opacity" values="1;0" keyTimes="0;1" dur="4.545454545454546s" begin="-2.6515151515151514s" repeatCount="indefinite"></animate>
  </rect>
</g><g transform="rotate(150 50 50)">
  <rect x="47" y="24" rx="3" ry="6" width="6" height="12" fill="#dbcfd1">
    <animate attributeName="opacity" values="1;0" keyTimes="0;1" dur="4.545454545454546s" begin="-2.2727272727272725s" repeatCount="indefinite"></animate>
  </rect>
</g><g transform="rotate(180 50 50)">
  <rect x="47" y="24" rx="3" ry="6" width="6" height="12" fill="#dbcfd1">
    <animate attributeName="opacity" values="1;0" keyTimes="0;1" dur="4.545454545454546s" begin="-1.8939393939393938s" repeatCount="indefinite"></animate>
  </rect>
</g><g transform="rotate(210 50 50)">
  <rect x="47" y="24" rx="3" ry="6" width="6" height="12" fill="#dbcfd1">
    <animate attributeName="opacity" values="1;0" keyTimes="0;1" dur="4.545454545454546s" begin="-1.5151515151515151s" repeatCount="indefinite"></animate>
  </rect>
</g><g transform="rotate(240 50 50)">
  <rect x="47" y="24" rx="3" ry="6" width="6" height="12" fill="#dbcfd1">
    <animate attributeName="opacity" values="1;0" keyTimes="0;1" dur="4.545454545454546s" begin="-1.1363636363636362s" repeatCount="indefinite"></animate>
  </rect>
</g><g transform="rotate(270 50 50)">
  <rect x="47" y="24" rx="3" ry="6" width="6" height="12" fill="#dbcfd1">
    <animate attributeName="opacity" values="1;0" keyTimes="0;1" dur="4.545454545454546s" begin="-0.7575757575757576s" repeatCount="indefinite"></animate>
  </rect>
</g><g transform="rotate(300 50 50)">
  <rect x="47" y="24" rx="3" ry="6" width="6" height="12" fill="#dbcfd1">
    <animate attributeName="opacity" values="1;0" keyTimes="0;1" dur="4.545454545454546s" begin="-0.3787878787878788s" repeatCount="indefinite"></animate>
  </rect>
</g><g transform="rotate(330 50 50)">
  <rect x="47" y="24" rx="3" ry="6" width="6" height="12" fill="#dbcfd1">
    <animate attributeName="opacity" values="1;0" keyTimes="0;1" dur="4.545454545454546s" begin="0s" repeatCount="indefinite"></animate>
  </rect>
</g>
<!-- [ldio] generated by https://loading.io/ --></svg>